<svg width="910" height="910" viewBox="0 0 910 910" version="1.1" xmlns="http://www.w3.org/2000/svg" xmlns:xlink="http://www.w3.org/1999/xlink">
<title>Page 1</title>
<desc>Created using Figma</desc>
<g id="Canvas" transform="translate(-2811 326)">
<g id="Bottom bud">
<g id="Eye">
<use xlink:href="#path0_stroke" transform="translate(2861.94 27.9847)"/>
</g>
<g id="Eye">
<use xlink:href="#path0_stroke" transform="translate(3063.97 27.9847)"/>
</g>
<g id="Eye">
<use xlink:href="#path0_stroke" transform="matrix(6.12323e-17 -1 1 6.12323e-17 3164.98 533.061)"/>
</g>
<g id="Eye">
<use xlink:href="#path0_stroke" transform="matrix(6.12323e-17 -1 1 6.12323e-17 3164.98 331.031)"/>
</g>
</g>
<g id="Pupil">
<use xlink:href="#path1_fill" transform="translate(3235.7 98.6954)"/>
</g>
</g>
<defs>
<path id="path0_stroke" d="M 0 101.015L -12.3235 79.2637L -50.7162 101.015L -12.3235 122.767L 0 101.015ZM 606.092 101.015L 618.415 122.767L 656.808 101.015L 618.415 79.2637L 606.092 101.015ZM 0 101.015C 12.3235 122.767 12.321 122.768 12.3191 122.769C 12.3194 122.769 12.3183 122.77 12.3188 122.769C 12.32 122.769 12.3238 122.767 12.3304 122.763C 12.3434 122.756 12.3672 122.742 12.4016 122.723C 12.4703 122.684 12.5815 122.622 12.7342 122.536C 13.0397 122.365 13.5113 122.102 14.1419 121.752C 15.4033 121.054 17.3003 120.012 19.7766 118.676C 24.7303 116.003 31.995 112.156 41.1201 107.526C 59.3897 98.2562 85.0172 85.8995 114.418 73.5595C 174.139 48.4932 245.981 25 303.046 25L 303.046 -25C 235.362 -25 155.682 2.01438 95.0669 27.4558C 64.2994 40.3696 37.5557 53.2667 18.4962 62.9372C 8.95679 67.7774 1.31735 71.822 -3.96685 74.6733C -6.60955 76.0993 -8.66496 77.2278 -10.0763 78.0091C -10.782 78.3998 -11.3268 78.7039 -11.7037 78.915C -11.8921 79.0206 -12.0386 79.1029 -12.1421 79.1613C -12.1939 79.1905 -12.235 79.2137 -12.2653 79.2308C -12.2804 79.2393 -12.2928 79.2463 -12.3025 79.2518C -12.3074 79.2546 -12.3126 79.2575 -12.3151 79.2589C -12.3196 79.2615 -12.3235 79.2637 0 101.015ZM 303.046 25C 360.111 25 431.953 48.4932 491.674 73.5595C 521.074 85.8995 546.702 98.2562 564.971 107.526C 574.097 112.156 581.361 116.003 586.315 118.676C 588.791 120.012 590.688 121.054 591.95 121.752C 592.58 122.102 593.052 122.365 593.357 122.536C 593.51 122.622 593.621 122.684 593.69 122.723C 593.724 122.742 593.748 122.756 593.761 122.763C 593.768 122.767 593.772 122.769 593.773 122.769C 593.773 122.77 593.772 122.769 593.772 122.769C 593.771 122.768 593.768 122.767 606.092 101.015C 618.415 79.2637 618.411 79.2615 618.407 79.2589C 618.404 79.2575 618.399 79.2546 618.394 79.2518C 618.384 79.2463 618.372 79.2393 618.357 79.2308C 618.327 79.2137 618.286 79.1905 618.234 79.1613C 618.13 79.1029 617.984 79.0206 617.795 78.915C 617.418 78.7039 616.874 78.3998 616.168 78.0091C 614.757 77.2278 612.701 76.0993 610.058 74.6733C 604.774 71.822 597.135 67.7774 587.595 62.9372C 568.536 53.2667 541.792 40.3696 511.025 27.4558C 450.41 2.01438 370.729 -25 303.046 -25L 303.046 25ZM 606.092 101.015C 593.768 79.2637 593.771 79.2622 593.772 79.2612C 593.772 79.2614 593.773 79.2607 593.773 79.261C 593.772 79.2617 593.768 79.2639 593.761 79.2675C 593.748 79.2749 593.724 79.2883 593.69 79.3077C 593.621 79.3465 593.51 79.409 593.357 79.4946C 593.052 79.6657 592.58 79.9289 591.95 80.278C 590.688 80.9764 588.791 82.0182 586.315 83.3543C 581.361 86.0273 574.097 89.8745 564.971 94.5045C 546.702 103.774 521.074 116.131 491.674 128.471C 431.953 153.537 360.111 177.031 303.046 177.031L 303.046 227.031C 370.729 227.031 450.41 200.016 511.025 174.575C 541.792 161.661 568.536 148.764 587.595 139.093C 597.135 134.253 604.774 130.208 610.058 127.357C 612.701 125.931 614.757 124.803 616.168 124.021C 616.874 123.631 617.418 123.327 617.795 123.116C 617.984 123.01 618.13 122.928 618.234 122.869C 618.286 122.84 618.327 122.817 618.357 122.8C 618.372 122.791 618.384 122.784 618.394 122.779C 618.399 122.776 618.404 122.773 618.407 122.772C 618.411 122.769 618.415 122.767 606.092 101.015ZM 303.046 177.031C 245.981 177.031 174.139 153.537 114.418 128.471C 85.0172 116.131 59.3897 103.774 41.1201 94.5045C 31.995 89.8745 24.7303 86.0273 19.7766 83.3543C 17.3003 82.0182 15.4033 80.9764 14.1419 80.278C 13.5113 79.9289 13.0397 79.6657 12.7342 79.4946C 12.5815 79.409 12.4703 79.3465 12.4016 79.3077C 12.3672 79.2883 12.3434 79.2749 12.3304 79.2675C 12.3238 79.2639 12.32 79.2617 12.3188 79.261C 12.3183 79.2607 12.3194 79.2614 12.3191 79.2612C 12.321 79.2622 12.3235 79.2637 0 101.015C -12.3235 122.767 -12.3196 122.769 -12.3151 122.772C -12.3126 122.773 -12.3074 122.776 -12.3025 122.779C -12.2928 122.784 -12.2804 122.791 -12.2653 122.8C -12.235 122.817 -12.1939 122.84 -12.1421 122.869C -12.0386 122.928 -11.8921 123.01 -11.7037 123.116C -11.3268 123.327 -10.782 123.631 -10.0763 124.021C -8.66496 124.803 -6.60955 125.931 -3.96685 127.357C 1.31735 130.208 8.95679 134.253 18.4962 139.093C 37.5557 148.764 64.2994 161.661 95.0669 174.575C 155.682 200.016 235.362 227.031 303.046 227.031L 303.046 177.031Z"/>
<path id="path1_fill" d="M 60.6092 30.3046C 60.6092 47.0413 47.0413 60.6092 30.3046 60.6092C 13.5678 60.6092 0 47.0413 0 30.3046C 0 13.5678 13.5678 0 30.3046 0C 47.0413 0 60.6092 13.5678 60.6092 30.3046Z"/>
</defs>
</svg>
