<svg width="588" height="588" viewBox="0 0 588 588" version="1.1" xmlns="http://www.w3.org/2000/svg" xmlns:xlink="http://www.w3.org/1999/xlink">
<title>Top bud</title>
<desc>Created using Figma</desc>
<g id="Canvas" transform="translate(-2972 165)">
<g id="Top bud">
<g id="Top white bud">
<g id="Eye">
<use xlink:href="#path0_stroke" transform="matrix(0.707107 0.707107 -0.707107 0.707107 3078.5 -183.5)" fill="#FFFFFF"/>
</g>
<g id="Eye">
<use xlink:href="#path0_stroke" transform="matrix(0.707107 0.707107 -0.707107 0.707107 3203.5 -58.5)" fill="#FFFFFF"/>
</g>
<g id="Eye">
<use xlink:href="#path0_stroke" transform="matrix(0.707107 -0.707107 0.707107 0.707107 2953.5 316.5)" fill="#FFFFFF"/>
</g>
<g id="Eye">
<use xlink:href="#path0_stroke" transform="matrix(0.707107 -0.707107 0.707107 0.707107 3078.5 191.5)" fill="#FFFFFF"/>
</g>
</g>
<g id="Top black bud">
<g id="Eye">
<use xlink:href="#path1_stroke" transform="matrix(0.707107 0.707107 -0.707107 0.707107 3078.5 -183.5)"/>
</g>
<g id="Eye">
<use xlink:href="#path1_stroke" transform="matrix(0.707107 0.707107 -0.707107 0.707107 3203.5 -58.5)"/>
</g>
<g id="Eye">
<use xlink:href="#path1_stroke" transform="matrix(0.707107 -0.707107 0.707107 0.707107 2953.5 316.5)"/>
</g>
<g id="Eye">
<use xlink:href="#path1_stroke" transform="matrix(0.707107 -0.707107 0.707107 0.707107 3078.5 191.5)"/>
</g>
</g>
</g>
</g>
<defs>
<path id="path0_stroke" d="M 0 88.3884L -14.7882 62.2864L -60.8595 88.3884L -14.7882 114.49L 0 88.3884ZM 530.33 88.3884L 545.118 114.49L 591.19 88.3884L 545.118 62.2864L 530.33 88.3884ZM 0 88.3884C 14.7882 114.49 14.7849 114.492 14.7823 114.494C 14.7822 114.494 14.7801 114.495 14.78 114.495C 14.7796 114.495 14.7815 114.494 14.7859 114.492C 14.7945 114.487 14.8125 114.477 14.8397 114.461C 14.8942 114.43 14.9858 114.379 15.1136 114.307C 15.3693 114.164 15.77 113.94 16.3096 113.642C 17.389 113.044 19.0231 112.147 21.1628 110.992C 25.4436 108.682 31.7393 105.348 39.6564 101.331C 55.514 93.285 77.7567 82.5607 103.26 71.8564C 155.37 49.9844 216.959 30 265.165 30L 265.165 -30C 204.216 -30 133.222 -5.79023 80.039 16.532C 52.8954 27.9248 29.3132 39.2975 12.5078 47.8244C 4.09349 52.0937 -2.65192 55.6649 -7.3293 58.1887C -9.6687 59.451 -11.4929 60.4525 -12.7522 61.1497C -13.3819 61.4983 -13.8705 61.771 -14.2119 61.9622C -14.3826 62.0578 -14.5164 62.1331 -14.6127 62.1874C -14.6609 62.2145 -14.6996 62.2364 -14.7289 62.2529C -14.7436 62.2612 -14.7558 62.2681 -14.7657 62.2737C -14.7706 62.2765 -14.7763 62.2797 -14.7787 62.2811C -14.7837 62.2839 -14.7882 62.2864 0 88.3884ZM 265.165 30C 313.371 30 374.96 49.9844 427.07 71.8564C 452.573 82.5607 474.816 93.285 490.674 101.331C 498.591 105.348 504.887 108.682 509.167 110.992C 511.307 112.147 512.941 113.044 514.021 113.642C 514.56 113.94 514.961 114.164 515.217 114.307C 515.344 114.379 515.436 114.43 515.49 114.461C 515.518 114.477 515.536 114.487 515.544 114.492C 515.549 114.494 515.551 114.495 515.55 114.495C 515.55 114.495 515.548 114.494 515.548 114.494C 515.545 114.492 515.542 114.49 530.33 88.3884C 545.118 62.2864 545.114 62.2839 545.109 62.2811C 545.106 62.2797 545.101 62.2765 545.096 62.2737C 545.086 62.2681 545.074 62.2612 545.059 62.2529C 545.03 62.2364 544.991 62.2145 544.943 62.1874C 544.847 62.1331 544.713 62.0578 544.542 61.9622C 544.201 61.771 543.712 61.4983 543.082 61.1497C 541.823 60.4525 539.999 59.451 537.659 58.1887C 532.982 55.6649 526.237 52.0937 517.822 47.8244C 501.017 39.2975 477.435 27.9248 450.291 16.532C 397.108 -5.79023 326.114 -30 265.165 -30L 265.165 30ZM 530.33 88.3884C 515.542 62.2864 515.545 62.2846 515.548 62.2831C 515.548 62.2831 515.55 62.2819 515.55 62.2818C 515.551 62.2816 515.549 62.2827 515.544 62.2851C 515.536 62.29 515.518 62.3001 515.49 62.3155C 515.436 62.3462 515.344 62.3977 515.217 62.4693C 514.961 62.6126 514.56 62.8362 514.021 63.135C 512.941 63.7326 511.307 64.63 509.167 65.7846C 504.887 68.0945 498.591 71.4287 490.674 75.4457C 474.816 83.4917 452.573 94.216 427.07 104.92C 374.96 126.792 313.371 146.777 265.165 146.777L 265.165 206.777C 326.114 206.777 397.108 182.567 450.291 160.245C 477.435 148.852 501.017 137.479 517.822 128.952C 526.237 124.683 532.982 121.112 537.659 118.588C 539.999 117.326 541.823 116.324 543.082 115.627C 543.712 115.278 544.201 115.006 544.542 114.814C 544.713 114.719 544.847 114.644 544.943 114.589C 544.991 114.562 545.03 114.54 545.059 114.524C 545.074 114.516 545.086 114.509 545.096 114.503C 545.101 114.5 545.106 114.497 545.109 114.496C 545.114 114.493 545.118 114.49 530.33 88.3884ZM 265.165 146.777C 216.959 146.777 155.37 126.792 103.26 104.92C 77.7567 94.216 55.514 83.4917 39.6564 75.4457C 31.7393 71.4287 25.4436 68.0945 21.1628 65.7846C 19.0231 64.63 17.389 63.7326 16.3096 63.135C 15.77 62.8362 15.3693 62.6126 15.1136 62.4693C 14.9858 62.3977 14.8942 62.3462 14.8397 62.3155C 14.8125 62.3001 14.7945 62.29 14.7859 62.2851C 14.7815 62.2827 14.7796 62.2816 14.78 62.2818C 14.7801 62.2819 14.7822 62.2831 14.7823 62.2831C 14.7849 62.2846 14.7882 62.2864 0 88.3884C -14.7882 114.49 -14.7837 114.493 -14.7787 114.496C -14.7763 114.497 -14.7706 114.5 -14.7657 114.503C -14.7558 114.509 -14.7436 114.516 -14.7289 114.524C -14.6996 114.54 -14.6609 114.562 -14.6127 114.589C -14.5164 114.644 -14.3826 114.719 -14.2119 114.814C -13.8705 115.006 -13.3819 115.278 -12.7522 115.627C -11.4929 116.324 -9.6687 117.326 -7.3293 118.588C -2.65192 121.112 4.09349 124.683 12.5078 128.952C 29.3132 137.479 52.8954 148.852 80.039 160.245C 133.222 182.567 204.216 206.777 265.165 206.777L 265.165 146.777Z"/>
<path id="path1_stroke" d="M 0 88.3884L -9.85878 70.9871L -40.573 88.3884L -9.85878 105.79L 0 88.3884ZM 530.33 88.3884L 540.189 105.79L 570.903 88.3884L 540.189 70.9871L 530.33 88.3884ZM 0 88.3884C 9.85878 105.79 9.85682 105.791 9.85546 105.792C 9.85579 105.791 9.85501 105.792 9.85568 105.791C 9.85701 105.791 9.86069 105.789 9.86673 105.785C 9.87879 105.778 9.90024 105.766 9.93097 105.749C 9.99244 105.714 10.0911 105.659 10.226 105.583C 10.496 105.432 10.9114 105.2 11.466 104.893C 12.5753 104.279 14.2411 103.364 16.4141 102.192C 20.761 99.846 27.1317 96.4723 35.1317 92.4132C 51.1472 84.2871 73.6131 73.4547 99.3898 62.6356C 151.679 40.6886 214.835 20 265.165 20L 265.165 -20C 206.34 -20 136.914 3.50554 83.9092 25.7527C 57.0389 37.0308 33.68 48.2954 17.0326 56.7421C 8.70112 60.9694 2.03067 64.5011 -2.58061 66.9893C -4.88673 68.2336 -6.67928 69.2178 -7.90856 69.8984C -8.52324 70.2387 -8.99722 70.5032 -9.32429 70.6864C -9.48783 70.778 -9.61466 70.8493 -9.70399 70.8997C -9.74866 70.9248 -9.78396 70.9448 -9.80979 70.9594C -9.8227 70.9667 -9.83325 70.9726 -9.84142 70.9772C -9.8455 70.9796 -9.84985 70.982 -9.85189 70.9832C -9.85563 70.9853 -9.85878 70.9871 0 88.3884ZM 265.165 20C 315.495 20 378.651 40.6886 430.94 62.6356C 456.717 73.4547 479.183 84.2871 495.198 92.4132C 503.198 96.4723 509.569 99.846 513.916 102.192C 516.089 103.364 517.755 104.279 518.864 104.893C 519.419 105.2 519.834 105.432 520.104 105.583C 520.239 105.659 520.338 105.714 520.399 105.749C 520.43 105.766 520.451 105.778 520.463 105.785C 520.469 105.789 520.473 105.791 520.474 105.791C 520.475 105.792 520.474 105.791 520.475 105.792C 520.473 105.791 520.471 105.79 530.33 88.3884C 540.189 70.9871 540.186 70.9853 540.182 70.9832C 540.18 70.982 540.176 70.9796 540.172 70.9772C 540.163 70.9726 540.153 70.9667 540.14 70.9594C 540.114 70.9448 540.079 70.9248 540.034 70.8997C 539.945 70.8493 539.818 70.778 539.654 70.6864C 539.327 70.5032 538.853 70.2387 538.239 69.8984C 537.009 69.2178 535.217 68.2336 532.911 66.9893C 528.299 64.5011 521.629 60.9694 513.298 56.7421C 496.65 48.2954 473.291 37.0308 446.421 25.7527C 393.417 3.50554 323.99 -20 265.165 -20L 265.165 20ZM 530.33 88.3884C 520.471 70.9871 520.473 70.986 520.475 70.9852C 520.474 70.9854 520.475 70.9849 520.474 70.9853C 520.473 70.9861 520.469 70.9882 520.463 70.9916C 520.451 70.9984 520.43 71.0105 520.399 71.0278C 520.338 71.0624 520.239 71.1179 520.104 71.1935C 519.834 71.3448 519.419 71.5766 518.864 71.8837C 517.755 72.4978 516.089 73.4126 513.916 74.5852C 509.569 76.9307 503.198 80.3044 495.198 84.3635C 479.183 92.4896 456.717 103.322 430.94 114.141C 378.651 136.088 315.495 156.777 265.165 156.777L 265.165 196.777C 323.99 196.777 393.417 173.271 446.421 151.024C 473.291 139.746 496.65 128.481 513.298 120.035C 521.629 115.807 528.299 112.276 532.911 109.787C 535.217 108.543 537.009 107.559 538.239 106.878C 538.853 106.538 539.327 106.274 539.654 106.09C 539.818 105.999 539.945 105.927 540.034 105.877C 540.079 105.852 540.114 105.832 540.14 105.817C 540.153 105.81 540.163 105.804 540.172 105.799C 540.176 105.797 540.18 105.795 540.182 105.794C 540.186 105.791 540.189 105.79 530.33 88.3884ZM 265.165 156.777C 214.835 156.777 151.679 136.088 99.3898 114.141C 73.6131 103.322 51.1472 92.4896 35.1317 84.3635C 27.1317 80.3044 20.761 76.9307 16.4141 74.5852C 14.2411 73.4126 12.5753 72.4978 11.466 71.8837C 10.9114 71.5766 10.496 71.3448 10.226 71.1935C 10.0911 71.1179 9.99244 71.0624 9.93097 71.0278C 9.90024 71.0105 9.87879 70.9984 9.86673 70.9916C 9.86069 70.9882 9.85701 70.9861 9.85568 70.9853C 9.85501 70.9849 9.85579 70.9854 9.85546 70.9852C 9.85682 70.986 9.85878 70.9871 0 88.3884C -9.85878 105.79 -9.85563 105.791 -9.85189 105.794C -9.84985 105.795 -9.8455 105.797 -9.84142 105.799C -9.83325 105.804 -9.8227 105.81 -9.80979 105.817C -9.78396 105.832 -9.74866 105.852 -9.70399 105.877C -9.61466 105.927 -9.48783 105.999 -9.32429 106.09C -8.99722 106.274 -8.52324 106.538 -7.90856 106.878C -6.67928 107.559 -4.88673 108.543 -2.58061 109.787C 2.03067 112.276 8.70112 115.807 17.0326 120.035C 33.68 128.481 57.0389 139.746 83.9092 151.024C 136.914 173.271 206.34 196.777 265.165 196.777L 265.165 156.777Z"/>
</defs>
</svg>
