<?xml version="1.0" standalone="no"?>
<!DOCTYPE svg PUBLIC "-//W3C//DTD SVG 20010904//EN"
 "http://www.w3.org/TR/2001/REC-SVG-20010904/DTD/svg10.dtd">
<svg version="1.0" xmlns="http://www.w3.org/2000/svg"
 width="520.000000pt" height="520.000000pt" viewBox="0 0 520.000000 520.000000"
 preserveAspectRatio="xMidYMid meet">
<metadata>
Created by potrace 1.11, written by Peter Selinger 2001-2013
</metadata>
<g transform="translate(0.000000,520.000000) scale(0.100000,-0.100000)"
fill="#000000" stroke="none">
<path d="M0 2600 l0 -2590 2600 0 2600 0 0 2590 0 2590 -2600 0 -2600 0 0
-2590z m2145 2159 c93 -15 138 -47 166 -116 l24 -58 2 -1420 c0 -781 1 -1427
2 -1436 1 -14 8 -15 43 -9 43 8 121 19 188 26 43 5 321 5 375 0 193 -17 254
-20 350 -20 164 1 240 12 390 61 116 37 247 119 323 202 85 93 161 237 188
356 30 131 43 237 47 366 l1 75 146 0 145 -1 0 40 0 40 -140 0 c-102 0 -141 3
-145 12 -3 7 -5 390 -4 850 0 607 4 849 12 879 24 83 76 135 152 149 19 4 110
9 203 12 l167 5 0 -2181 0 -2181 -2180 0 -2180 0 0 2180 0 2180 833 -1 c488 0
857 -5 892 -10z m1323 -6 c74 -15 104 -31 144 -75 53 -58 52 -41 55 -958 l3
-855 -210 0 -210 1 0 -37 c0 -21 6 -39 13 -41 6 -2 101 -3 210 -3 l199 2 -3
-236 c-3 -195 -14 -359 -32 -452 -1 -9 -17 -45 -34 -80 -53 -107 -168 -199
-267 -215 -225 -35 -381 48 -414 221 -3 16 -6 597 -6 1290 -1 1068 1 1268 13
1310 24 81 70 120 160 135 76 12 307 8 379 -7z"/>
</g>
</svg>
